<svg id="Layer_1" data-name="Layer 1" xmlns="http://www.w3.org/2000/svg" viewBox="0 0 941.7 301.96"><defs><style>.cls-1,.cls-3{fill:#fff;}.cls-2{fill:#5f76b5;}.cls-3{font-size:80px;font-family:Mulish-BlackItalic, Mulish;font-style:italic;letter-spacing:0.26em;}.cls-4{letter-spacing:0.27em;}.cls-5{letter-spacing:0.28em;}.cls-6{letter-spacing:0.28em;}.cls-7{letter-spacing:0.26em;}.cls-8{letter-spacing:0.28em;}.cls-9{letter-spacing:0.27em;}.cls-10{letter-spacing:0.3em;}.cls-11{letter-spacing:0.28em;}</style></defs><title>fprt_logo_vio-wht</title><path class="cls-1" d="M84.41,414.95s-9.54-.13-11.51,8.6l-32,142s-2,7.87,5.86,7.87H83.54s7.68-.11,9.3-7.45l12.26-55.35a10,10,0,0,1,9.88-7.41h34.83s7.74,0,9.44-7.44l1-4.12s1.9-7.44-5.85-7.44H119.55s-8.42-.16-6.94-7.48,8-35.55,8-35.55,2.22-7.49,9.18-7.49H176.1s6.77.24,8-4.43,1.67-6.89,1.67-6.89,1.86-7.43-6-7.43Z" transform="translate(-17.61 -372.07)"/><path class="cls-2" d="M550.57,433.3c-6.91,0-9.11,7.71-9.11,7.71L513.85,564.93c-1.62,7.3-9.24,7.4-9.24,7.4H468.11c-7.84,0-5.83-7.82-5.83-7.82l31.76-141c1.95-8.66,11.43-8.54,11.43-8.54H573.8s40.91-1.16,49.29,20.51-6,47.2-6,47.2S606.4,503.87,579.15,510c-25.42,5.76-51.43,4.64-51.43,4.64s18.62-1.25,31.5-22.69,13.38-37.41,13.38-40,1.7-18.2-13.89-18.67c-4.32-.13-8.15-.08-8.15-.08" transform="translate(-17.61 -372.07)"/><path class="cls-1" d="M408.56,442.4s2.42,12.23-6.14,32.28C391.23,500.91,370.65,499,370.65,499s16.17,37.52,20.88,47c4.3,8.65,10.73,8.86,10.73,8.86h46.62L420.6,498.71c15.79-7,22.18-14,22.18-14,12.7-12.71,14.75-41.12,14.75-41.12s.55-12.78-9.93-19.73c-16-10.63-46.23-8.9-46.23-8.9h-51s-9.62-.13-11.6,8.67S310.8,547,310.8,547s-2,7.95,5.91,7.95h31s7.74-.11,9.38-7.52l24.3-108.75s2.24-7.77,9.26-7.55h5.77s10.24.08,12.15,11.31" transform="translate(-17.61 -372.07)"/><path class="cls-2" d="M717.74,442.4s2.42,12.23-6.14,32.28c-11.2,26.24-31.77,24.38-31.77,24.38s16.17,37.52,20.88,47c4.3,8.65,10.73,8.86,10.73,8.86h46.63l-28.29-56.2c15.79-7,22.18-14,22.18-14,12.71-12.71,14.75-41.13,14.75-41.13s.55-12.78-9.93-19.73c-16-10.63-46.24-8.9-46.24-8.9h-51s-9.63-.13-11.6,8.67S620,547,620,547s-2,7.95,5.92,7.95h31s7.74-.11,9.38-7.52l24.3-108.77s2.24-7.77,9.26-7.55h5.77s10.24.08,12.16,11.31" transform="translate(-17.61 -372.07)"/><path class="cls-1" d="M269.89,461.72l-9.3,41.45c-2.44,10.86-6.6,33.08-29,33.08s-14.49-27.7-14.49-27.7,4.1-18.9,10.75-49.59,28.34-28.44,28.34-28.44c23.65,0,13.7,31.21,13.7,31.21m36.93-29.8c-11.74-17.75-32.37-19.52-44.11-20.34,0,0-20.94-1.63-39.72,8.06s-24.14,17.57-24.14,17.57-12.75,13.73-16.39,27.62S175,495.89,175,495.89s-6.75,27,7,43.76,33.41,18,37.81,18.22a87,87,0,0,0,47.55-9.23c23-11.77,35-32.6,38.28-45.64s7.1-30.75,7.1-30.75,5.8-22.58-5.93-40.33" transform="translate(-17.61 -372.07)"/><path class="cls-2" d="M862,461.72s-6.87,30.6-9.31,41.45-6.6,33.08-29,33.08-14.48-27.7-14.48-27.7,4.1-18.9,10.74-49.59,28.34-28.44,28.34-28.44c23.65,0,13.7,31.21,13.7,31.21M899,431.92c-11.74-17.75-32.37-19.52-44.12-20.34,0,0-20.94-1.63-39.72,8.06S791,437.21,791,437.21s-12.74,13.73-16.38,27.62-7.44,31.06-7.44,31.06-6.75,27,7,43.76,33.41,18,37.81,18.22a87,87,0,0,0,47.56-9.23c23-11.77,35-32.6,38.27-45.64s7.1-30.75,7.1-30.75,5.81-22.58-5.93-40.33" transform="translate(-17.61 -372.07)"/><path class="cls-1" d="M913.2,422.5A62.65,62.65,0,0,1,923,450.62l36.34-78.55L879,398.15c11.81,3.41,24.88,10.22,34.21,24.34" transform="translate(-17.61 -372.07)"/><text class="cls-3" transform="matrix(0.99, 0, -0.14, 0.99, 3.04, 280.34)">R<tspan class="cls-4" x="77.94" y="0">U</tspan><tspan class="cls-5" x="159.8" y="0">NN</tspan><tspan class="cls-6" x="326.63" y="0">I</tspan><tspan class="cls-7" x="374.08" y="0">N</tspan><tspan class="cls-8" x="456.22" y="0">G </tspan><tspan class="cls-9" x="583.5" y="0">T</tspan><tspan class="cls-10" x="655.79" y="0">E</tspan><tspan class="cls-11" x="728.19" y="0">A</tspan><tspan class="cls-8" x="812.2" y="0">M</tspan></text></svg>